# AST/ASF file generated using VICON BodyLanguage
# -----------------------------------------------
:version 1.10
:name VICON
:units
  mass 1.0
  length 0.45
  angle deg
:documentation
   .ast/.asf automatically generated from VICON data using
   VICON BodyBuilder and BodyLanguage model FoxedUp or BRILLIANT.MOD
:root
   order TX TY TZ RX RY RZ
   axis XYZ
   position 0 0 0  
   orientation 0 0 0 
:bonedata
  begin
     id 1 
     name lhipjoint
     direction 0.650112 -0.723553 0.232005 
     length 2.45805 
     axis 0 0 0  XYZ
  end
  begin
     id 2 
     name lfemur
     direction 0.34202 -0.939693 0  
     length 7.00073  
     axis 0 0 20  XYZ
    dof rx ry rz
    limits (-160.0 20.0)
           (-70.0 70.0)
           (-60.0 70.0)
  end
  begin
     id 3 
     name ltibia
     direction 0.34202 -0.939693 0   
     length 7.8748   
     axis 0 0 20   XYZ
    dof rx
    limits (-10.0 170.0)
  end
  begin
     id 4 
     name lfoot
     direction 0.0542825 -0.14914 0.987325   
     length 1.75978   
     axis -90 7.62852e-016 20   XYZ
    dof rx rz
    limits (-45.0 90.0)
           (-70.0 20.0)
  end
  begin
     id 5 
     name ltoes
     direction 1.53509e-011 -4.21906e-011 1   
     length 0.893912   
     axis -90 7.62852e-016 20   XYZ
    dof rx
    limits (-90.0 20.0)
  end
  begin
     id 6 
     name rhipjoint
     direction -0.637897 -0.733345 0.235145   
     length 2.42522  
     axis 0 0 0  XYZ 
  end
  begin
     id 7 
     name rfemur
     direction -0.34202 -0.939693 0   
     length 7.02549   
     axis 0 0 -20   XYZ
    dof rx ry rz
    limits (-160.0 20.0)
           (-70.0 70.0)
           (-70.0 60.0)
  end
  begin
     id 8 
     name rtibia
     direction -0.34202 -0.939693 0   
     length 7.71512   
     axis 0 0 -20   XYZ
    dof rx
    limits (-10.0 170.0)
 end
 begin
     id 9 
     name rfoot
     direction -0.0822618 -0.226012 0.970645   
     length 1.90014  
     axis -90 -7.62852e-016 -20   XYZ
    dof rx rz
    limits (-45.0 90.0)
           (-20.0 70.0)
  end
  begin
     id 10 
     name rtoes
     direction -1.53542e-011 -4.21872e-011 1   
     length 0.957341   
     axis -90 -7.62852e-016 -20   XYZ
    dof rx
    limits (-90.0 20.0)
  end
  begin
     id 11 
     name lowerback
     direction -0.0022947 0.999774 -0.0211557   
     length 1.89909   
     axis 0 0 0   XYZ
    dof rx ry rz
    limits (-20.0 45.0)
           (-30.0 30.0)
           (-30.0 30.0)
  end
  begin
     id 12 
     name upperback
     direction 0.0107737 0.998635 0.0511027   
     length 1.8853   
     axis 0 0 0   XYZ
    dof rx ry rz
    limits (-20.0 45.0)
           (-30.0 30.0)
           (-30.0 30.0)
  end
  begin
     id 13 
     name thorax
     direction 0.011824 0.998136 0.0598754   
     length 1.88911   
     axis 0 0 0   XYZ
    dof rx ry rz
    limits (-20.0 45.0)
           (-30.0 30.0)
           (-30.0 30.0)
  end
  begin
     id 14 
     name lowerneck
     direction -0.0685355 0.990319 0.120714   
     length 1.91222   
     axis 0 0 0   XYZ
    dof rx ry rz
    limits (-20.0 45.0)
           (-30.0 30.0)
           (-30.0 30.0)
  end
  begin
     id 15 
     name upperneck
     direction 0.0886204 0.955665 -0.280805   
     length 1.92526   
     axis 0 0 0   XYZ
    dof rx ry rz
    limits (-20.0 45.0)
           (-30.0 30.0)
           (-30.0 30.0)
  end
  begin
     id 16
     name head
     direction 0.0233423 0.993502 -0.111393  
     length 1.96056  
     axis 0 0 0   XYZ
    dof rx ry rz
    limits (-20.0 45.0)
           (-30.0 30.0)
           (-30.0 30.0)
  end
  begin
     id 17 
     name lclavicle
     direction 0.941873 0.32922 0.0670041  
     length 3.31705  
     axis 0 0 0   XYZ
    dof ry rz
    limits (-20.0 10.0)
           (0.0 20.0)
  end
  begin
     id 18 
     name lhumerus
     direction 1 -4.4898e-011 3.38707e-028   
     length 5.29277   
     axis 180 -30 -90   XYZ
    dof rx ry rz
    limits (-60.0 90.0)
           (-90.0 90.0)
           (-90.0 90.0)
  end
  begin
     id 19
     name lradius
     direction 1 -4.48952e-011 1.63213e-028   
     length 2.85226   
     axis 180 -30 -90   XYZ
    dof rx
    limits (-10.0 170.0)
  end
  begin
     id 20
     name lwrist
     direction 1 -4.49001e-011 1.27856e-027   
     length 1.42613   
     axis -1.61767e-015 90 90   XYZ
    dof ry
    limits (-180.0 0.0)
 end
  begin
     id 21 
     name lhand
     direction 1 -4.48976e-011 2.55931e-027   
     length 0.602097   
     axis -1.63363e-015 90 90   XYZ
    dof rx rz
    limits (-90.0 90.0)
           (-45.0 45.0)
  end
  begin
     id 22 
     name lfingers
     direction 1 -4.48986e-011 5.11684e-027   
     length 0.485426   
     axis -3.26723e-015 90 90   XYZ
    dof rx
    limits (0.0 90.0)
  end
  begin
     id 23
     name lthumb
     direction 0.707107 -6.34915e-011 0.707107   
     length 0.696978   
     axis -90 45 -2.25915e-014   XYZ
    dof rx rz
    limits (-45.0 45.0)
           (-45.0 45.0)
  end
  begin
     id 24 
     name rclavicle
     direction -0.939974 0.327078 0.0973096   
     length 3.10337  
     axis 0 0 0   XYZ 
    dof ry rz
    limits (-10.0 20.0)
           (-20.0 0.0)
  end
  begin
     id 25 
     name rhumerus
     direction -1 -4.48975e-011 1.83745e-027  
     length 5.13304   
     axis 180 30 90   XYZ
    dof rx ry rz
    limits (-90.0 60.0)
           (-90.0 90.0)
           (-90.0 90.0)
  end
  begin
     id 26 
     name rradius
     direction -1 -4.48977e-011 7.1775e-029   
     length 2.74305   
     axis 180 30 90   XYZ
    dof rx
    limits (-10.0 170.0)
  end
  begin
     id 27 
     name rwrist
     direction -1 -4.48977e-011 1.27963e-027   
     length 1.37152   
     axis -1.61767e-015 -90 -90   XYZ
    dof ry
    limits (-180.0 0.0)
  end
  begin
     id 28
     name rhand
     direction -1 -4.4888e-011 2.56782e-027   
     length 0.767976   
     axis -1.63363e-015 -90 -90   XYZ
    dof rx rz
    limits (-90.0 90.0)
           (-45.0 45.0)
  end
  begin
     id 29
     name rfingers
     direction -1 -4.48947e-011 5.12384e-027   
     length 0.619162   
     axis -3.26723e-015 -90 -90   XYZ
    dof rx
    limits (0.0 90.0)
  end
  begin
     id 30
     name rthumb
     direction -0.707107 -6.34857e-011 0.707107   
     length 0.888997   
     axis -90 -45 2.25915e-014   XYZ
    dof rx rz
    limits (-45.0 45.0)
           (-45.0 45.0)
  end
:hierarchy
  begin
    root lhipjoint rhipjoint lowerback
    lhipjoint lfemur
    lfemur ltibia
    ltibia lfoot
    lfoot ltoes
    rhipjoint rfemur
    rfemur rtibia
    rtibia rfoot
    rfoot rtoes
    lowerback upperback
    upperback thorax
    thorax lowerneck lclavicle rclavicle
    lowerneck upperneck
    upperneck head
    lclavicle lhumerus
    lhumerus lradius
    lradius lwrist
    lwrist lhand lthumb
    lhand lfingers
    rclavicle rhumerus
    rhumerus rradius
    rradius rwrist
    rwrist rhand rthumb
    rhand rfingers
  end

#!OML:ASF F:\VICON\USERDATA\INSTALL\rory3\rory3.ASF
:FULLY-SPECIFIED
:DEGREES
1184
root 0.321539 17.4764 0.513527 5.24318 1.99279 -0.148658
lowerback -2.0157 -0.371245 -2.13992
upperback -3.73561 -0.468329 1.04712
thorax -2.68249 -0.159781 2.27756
lowerneck -9.26309 -11.5081 -18.5064
upperneck 17.9072 -16.8916 18.5484
head 10.513 -7.67393 7.30526
rclavicle 6.31763e-015 -5.56597e-015
rhumerus -38.0559 -1.58055 -86.038
rradius 22.5014
rwrist 11.814
rhand -1.59421 10.9328
rfingers 7.12502
rthumb 24.0625 -17.5786
lclavicle 6.31763e-015 -5.56597e-015
lhumerus -32.3156 -5.49006 95.2348
lradius 18.4505
lwrist -20.25
lhand 3.56003 24.4118
lfingers 7.12502
lthumb 28.9956 52.1763
rfemur 0 0 0
rtibia 0
rfoot 0 0
rtoes 0
lfemur -5.69119 -18.9927 -18.1602
ltibia 13.1983
lfoot -12.9027 12.9719
ltoes -16.4405
1185
root 0.323176 17.4756 0.512947 5.23347 2.01716 -0.0878237
lowerback -2.01104 -0.370954 -2.20136
upperback -3.72084 -0.467697 1.0542
thorax -2.66956 -0.158022 2.31932
lowerneck -9.30483 -11.5352 -18.5988
upperneck 17.9461 -16.9181 18.5639
head 10.5518 -7.68795 7.32038
rclavicle -6.8705e-015 1.11319e-014
rhumerus -38.0937 -2.22604 -85.5729
rradius 22.6335
rwrist 11.2056
rhand -1.35047 10.7667
rfingers 7.12502
rthumb 24.2962 -17.7137
lclavicle -6.8705e-015 1.11319e-014
lhumerus -32.2777 -5.3005 95.204
lradius 18.4631
lwrist -20.3789
lhand 3.7375 24.7061
lfingers 7.12502
lthumb 29.1651 52.4414
rfemur 0 0 0
rtibia 0
rfoot 0 0
rtoes 0
lfemur -5.6655 -19.0329 -18.2311
ltibia 13.1745
lfoot -12.8531 12.9936
ltoes -16.5214
1186
root 0.324264 17.4757 0.511718 5.23492 2.0241 -0.094437
lowerback -2.00131 -0.365592 -2.17608
upperback -3.72644 -0.460674 1.05984
thorax -2.6813 -0.154882 2.31101
lowerneck -9.28477 -11.5616 -18.658
upperneck 17.9359 -16.9515 18.5775
head 10.5589 -7.70739 7.32915
rclavicle -5.93869e-015 5.96354e-016
rhumerus -38.1285 -3.09341 -85.0235
rradius 22.7766
rwrist 10.4075
rhand -1.09253 10.4111
rfingers 7.12502
rthumb 24.5435 -18.0359
lclavicle -5.93869e-015 5.96354e-016
lhumerus -32.2587 -5.21102 95.1642
lradius 18.4337
lwrist -20.3587
lhand 3.80909 24.8351
lfingers 7.12502
lthumb 29.2334 52.5585
rfemur 0 0 0
rtibia 0
rfoot 0 0
rtoes 0
lfemur -5.67636 -19.0483 -18.2232
ltibia 13.1757
lfoot -12.788 13.0597
ltoes -16.9936
1187
root 0.325024 17.4757 0.510098 5.22773 2.05737 -0.126336
lowerback -1.9766 -0.357089 -2.13658
upperback -3.71359 -0.449298 1.08424
thorax -2.68254 -0.149995 2.31404
lowerneck -9.32162 -11.6201 -18.7844
upperneck 17.9573 -17.0219 18.616
head 10.6062 -7.74246 7.34945
rclavicle -4.1869e-015 3.37934e-015
rhumerus -38.1149 -3.7799 -84.548
rradius 23.044
rwrist 9.07544
rhand -0.669887 9.73098
rfingers 7.12502
rthumb 24.9486 -18.6604
lclavicle -4.1869e-015 3.37934e-015
lhumerus -32.18 -5.01273 95.1043
lradius 18.3645
lwrist -20.5418
lhand 3.93457 24.9203
lfingers 7.12502
lthumb 29.3532 52.6227
rfemur 0 0 0
rtibia 0
rfoot 0 0
rtoes 0
lfemur -5.6982 -19.0871 -18.1808
ltibia 13.187
lfoot -12.7776 13.0603
ltoes -17.0062
1188
root 0.324726 17.4764 0.509389 5.24363 2.08541 -0.195304
lowerback -1.99919 -0.337306 -2.08055
upperback -3.69186 -0.421495 1.13227
thorax -2.64888 -0.137523 2.33168
lowerneck -9.39988 -11.7002 -18.925
upperneck 17.9876 -17.1128 18.6445
head 10.6699 -7.78586 7.36227
rclavicle -1.45734e-014 2.56432e-014
rhumerus -38.0521 -4.49402 -84.0134
rradius 23.2081
rwrist 7.88157
rhand -0.520633 9.35167
rfingers 7.12502
rthumb 25.0916 -19.0198
lclavicle -1.45734e-014 2.56432e-014
lhumerus -32.0805 -4.8824 95.1103
lradius 18.3397
lwrist -20.6499
lhand 3.95724 24.9523
lfingers 7.12502
lthumb 29.3749 52.651
rfemur 0 0 0
rtibia 0
rfoot 0 0
rtoes 0
lfemur -5.7458 -19.1153 -18.0839
ltibia 13.2112
lfoot -12.8952 13.0322
ltoes -16.5999
1189
root 0.324131 17.4771 0.507027 5.26767 2.05529 -0.139267
lowerback -1.99005 -0.299051 -2.15918
upperback -3.70189 -0.370593 1.12488
thorax -2.66707 -0.109703 2.36825
lowerneck -9.3972 -11.765 -18.994
upperneck 17.9942 -17.1925 18.6277
head 10.6944 -7.82805 7.35099
rclavicle -5.889e-015 -1.33186e-014
rhumerus -38.0282 -5.20295 -83.5104
rradius 23.3094
rwrist 6.5926
rhand -0.647515 9.12979
rfingers 7.12502
rthumb 24.97 -19.2586
lclavicle -5.889e-015 -1.33186e-014
lhumerus -32.0421 -4.80885 95.1016
lradius 18.315
lwrist -20.7192
lhand 3.89411 24.876
lfingers 7.12502
lthumb 29.3146 52.5852
rfemur 0 0 0
rtibia 0
rfoot 0 0
rtoes 0
lfemur -5.77418 -19.0978 -18.1257
ltibia 13.1919
lfoot -12.9107 13.0006
ltoes -16.3819
